<svg id="visual" viewBox="0 0 900 500" width="900" height="500" xmlns="http://www.w3.org/2000/svg" xmlns:xlink="http://www.w3.org/1999/xlink" version="1.1"><path d="M0 163L21.5 162.8C43 162.7 86 162.3 128.8 168.8C171.7 175.3 214.3 188.7 257.2 186.3C300 184 343 166 385.8 166C428.7 166 471.3 184 514.2 191.7C557 199.3 600 196.7 642.8 185.2C685.7 173.7 728.3 153.3 771.2 143.5C814 133.7 857 134.3 878.5 134.7L900 135L900 0L878.5 0C857 0 814 0 771.2 0C728.3 0 685.7 0 642.8 0C600 0 557 0 514.2 0C471.3 0 428.7 0 385.8 0C343 0 300 0 257.2 0C214.3 0 171.7 0 128.8 0C86 0 43 0 21.5 0L0 0Z" fill="#d6e6f2"></path><path d="M0 109L21.5 111C43 113 86 117 128.8 126.8C171.7 136.7 214.3 152.3 257.2 156.3C300 160.3 343 152.7 385.8 141.8C428.7 131 471.3 117 514.2 109.5C557 102 600 101 642.8 112.2C685.7 123.3 728.3 146.7 771.2 148.7C814 150.7 857 131.3 878.5 121.7L900 112L900 0L878.5 0C857 0 814 0 771.2 0C728.3 0 685.7 0 642.8 0C600 0 557 0 514.2 0C471.3 0 428.7 0 385.8 0C343 0 300 0 257.2 0C214.3 0 171.7 0 128.8 0C86 0 43 0 21.5 0L0 0Z" fill="#bdd5e8"></path><path d="M0 84L21.5 84.3C43 84.7 86 85.3 128.8 87.5C171.7 89.7 214.3 93.3 257.2 91.5C300 89.7 343 82.3 385.8 78.8C428.7 75.3 471.3 75.7 514.2 79C557 82.3 600 88.7 642.8 89.5C685.7 90.3 728.3 85.7 771.2 91C814 96.3 857 111.7 878.5 119.3L900 127L900 0L878.5 0C857 0 814 0 771.2 0C728.3 0 685.7 0 642.8 0C600 0 557 0 514.2 0C471.3 0 428.7 0 385.8 0C343 0 300 0 257.2 0C214.3 0 171.7 0 128.8 0C86 0 43 0 21.5 0L0 0Z" fill="#a4c3df"></path><path d="M0 52L21.5 52.2C43 52.3 86 52.7 128.8 57.5C171.7 62.3 214.3 71.7 257.2 71.3C300 71 343 61 385.8 62C428.7 63 471.3 75 514.2 77.7C557 80.3 600 73.7 642.8 71.8C685.7 70 728.3 73 771.2 70C814 67 857 58 878.5 53.5L900 49L900 0L878.5 0C857 0 814 0 771.2 0C728.3 0 685.7 0 642.8 0C600 0 557 0 514.2 0C471.3 0 428.7 0 385.8 0C343 0 300 0 257.2 0C214.3 0 171.7 0 128.8 0C86 0 43 0 21.5 0L0 0Z" fill="#8cb1d6"></path><path d="M0 56L21.5 55C43 54 86 52 128.8 51.2C171.7 50.3 214.3 50.7 257.2 48C300 45.3 343 39.7 385.8 35.5C428.7 31.3 471.3 28.7 514.2 26.7C557 24.7 600 23.3 642.8 24C685.7 24.7 728.3 27.3 771.2 32C814 36.7 857 43.3 878.5 46.7L900 50L900 0L878.5 0C857 0 814 0 771.2 0C728.3 0 685.7 0 642.8 0C600 0 557 0 514.2 0C471.3 0 428.7 0 385.8 0C343 0 300 0 257.2 0C214.3 0 171.7 0 128.8 0C86 0 43 0 21.5 0L0 0Z" fill="#769fcd"></path></svg>