<svg id="visual" viewBox="0 0 960 300" width="960" height="300" xmlns="http://www.w3.org/2000/svg" xmlns:xlink="http://www.w3.org/1999/xlink" version="1.1"><rect x="0" y="0" width="960" height="300" fill="#D6E6F2"></rect><path d="M0 242L22.8 243.3C45.7 244.7 91.3 247.3 137 245.2C182.7 243 228.3 236 274 232.7C319.7 229.3 365.3 229.7 411.2 232.8C457 236 503 242 548.8 245.8C594.7 249.7 640.3 251.3 686 249.2C731.7 247 777.3 241 823 239.2C868.7 237.3 914.3 239.7 937.2 240.8L960 242L960 301L937.2 301C914.3 301 868.7 301 823 301C777.3 301 731.7 301 686 301C640.3 301 594.7 301 548.8 301C503 301 457 301 411.2 301C365.3 301 319.7 301 274 301C228.3 301 182.7 301 137 301C91.3 301 45.7 301 22.8 301L0 301Z" fill="#d6e6f2"></path><path d="M0 258L22.8 255.7C45.7 253.3 91.3 248.7 137 248.5C182.7 248.3 228.3 252.7 274 252C319.7 251.3 365.3 245.7 411.2 243C457 240.3 503 240.7 548.8 240.3C594.7 240 640.3 239 686 242.3C731.7 245.7 777.3 253.3 823 255C868.7 256.7 914.3 252.3 937.2 250.2L960 248L960 301L937.2 301C914.3 301 868.7 301 823 301C777.3 301 731.7 301 686 301C640.3 301 594.7 301 548.8 301C503 301 457 301 411.2 301C365.3 301 319.7 301 274 301C228.3 301 182.7 301 137 301C91.3 301 45.7 301 22.8 301L0 301Z" fill="#bdd5e8"></path><path d="M0 271L22.8 271C45.7 271 91.3 271 137 269.2C182.7 267.3 228.3 263.7 274 261C319.7 258.3 365.3 256.7 411.2 255.5C457 254.3 503 253.7 548.8 253.3C594.7 253 640.3 253 686 254C731.7 255 777.3 257 823 258.7C868.7 260.3 914.3 261.7 937.2 262.3L960 263L960 301L937.2 301C914.3 301 868.7 301 823 301C777.3 301 731.7 301 686 301C640.3 301 594.7 301 548.8 301C503 301 457 301 411.2 301C365.3 301 319.7 301 274 301C228.3 301 182.7 301 137 301C91.3 301 45.7 301 22.8 301L0 301Z" fill="#a4c3df"></path><path d="M0 272L22.8 272.3C45.7 272.7 91.3 273.3 137 274.3C182.7 275.3 228.3 276.7 274 277C319.7 277.3 365.3 276.7 411.2 274.7C457 272.7 503 269.3 548.8 268.7C594.7 268 640.3 270 686 270.8C731.7 271.7 777.3 271.3 823 272C868.7 272.7 914.3 274.3 937.2 275.2L960 276L960 301L937.2 301C914.3 301 868.7 301 823 301C777.3 301 731.7 301 686 301C640.3 301 594.7 301 548.8 301C503 301 457 301 411.2 301C365.3 301 319.7 301 274 301C228.3 301 182.7 301 137 301C91.3 301 45.7 301 22.8 301L0 301Z" fill="#8cb1d6"></path><path d="M0 284L22.8 285C45.7 286 91.3 288 137 288.2C182.7 288.3 228.3 286.7 274 284.8C319.7 283 365.3 281 411.2 280.8C457 280.7 503 282.3 548.8 282.2C594.7 282 640.3 280 686 280.7C731.7 281.3 777.3 284.7 823 286C868.7 287.3 914.3 286.7 937.2 286.3L960 286L960 301L937.2 301C914.3 301 868.7 301 823 301C777.3 301 731.7 301 686 301C640.3 301 594.7 301 548.8 301C503 301 457 301 411.2 301C365.3 301 319.7 301 274 301C228.3 301 182.7 301 137 301C91.3 301 45.7 301 22.8 301L0 301Z" fill="#769fcd"></path></svg>