<svg id="visual" viewBox="0 0 900 500" width="900" height="500" xmlns="http://www.w3.org/2000/svg" xmlns:xlink="http://www.w3.org/1999/xlink" version="1.1"><rect x="0" y="0" width="900" height="500" fill="#F7FBFC"></rect><path d="M0 335L21.5 335.2C43 335.3 86 335.7 128.8 329.2C171.7 322.7 214.3 309.3 257.2 311.7C300 314 343 332 385.8 332C428.7 332 471.3 314 514.2 306.3C557 298.7 600 301.3 642.8 312.8C685.7 324.3 728.3 344.7 771.2 354.5C814 364.3 857 363.7 878.5 363.3L900 363L900 501L878.5 501C857 501 814 501 771.2 501C728.3 501 685.7 501 642.8 501C600 501 557 501 514.2 501C471.3 501 428.7 501 385.8 501C343 501 300 501 257.2 501C214.3 501 171.7 501 128.8 501C86 501 43 501 21.5 501L0 501Z" fill="#d6e6f2"></path><path d="M0 389L21.5 387C43 385 86 381 128.8 371.2C171.7 361.3 214.3 345.7 257.2 341.7C300 337.7 343 345.3 385.8 356.2C428.7 367 471.3 381 514.2 388.5C557 396 600 397 642.8 385.8C685.7 374.7 728.3 351.3 771.2 349.3C814 347.3 857 366.7 878.5 376.3L900 386L900 501L878.5 501C857 501 814 501 771.2 501C728.3 501 685.7 501 642.8 501C600 501 557 501 514.2 501C471.3 501 428.7 501 385.8 501C343 501 300 501 257.2 501C214.3 501 171.7 501 128.8 501C86 501 43 501 21.5 501L0 501Z" fill="#bdd5e8"></path><path d="M0 414L21.5 413.7C43 413.3 86 412.7 128.8 410.5C171.7 408.3 214.3 404.7 257.2 406.5C300 408.3 343 415.7 385.8 419.2C428.7 422.7 471.3 422.3 514.2 419C557 415.7 600 409.3 642.8 408.5C685.7 407.7 728.3 412.3 771.2 407C814 401.7 857 386.3 878.5 378.7L900 371L900 501L878.5 501C857 501 814 501 771.2 501C728.3 501 685.7 501 642.8 501C600 501 557 501 514.2 501C471.3 501 428.7 501 385.8 501C343 501 300 501 257.2 501C214.3 501 171.7 501 128.8 501C86 501 43 501 21.5 501L0 501Z" fill="#a4c3df"></path><path d="M0 446L21.5 445.8C43 445.7 86 445.3 128.8 440.5C171.7 435.7 214.3 426.3 257.2 426.7C300 427 343 437 385.8 436C428.7 435 471.3 423 514.2 420.3C557 417.7 600 424.3 642.8 426.2C685.7 428 728.3 425 771.2 428C814 431 857 440 878.5 444.5L900 449L900 501L878.5 501C857 501 814 501 771.2 501C728.3 501 685.7 501 642.8 501C600 501 557 501 514.2 501C471.3 501 428.7 501 385.8 501C343 501 300 501 257.2 501C214.3 501 171.7 501 128.8 501C86 501 43 501 21.5 501L0 501Z" fill="#8cb1d6"></path><path d="M0 442L21.5 443C43 444 86 446 128.8 446.8C171.7 447.7 214.3 447.3 257.2 450C300 452.7 343 458.3 385.8 462.5C428.7 466.7 471.3 469.3 514.2 471.3C557 473.3 600 474.7 642.8 474C685.7 473.3 728.3 470.7 771.2 466C814 461.3 857 454.7 878.5 451.3L900 448L900 501L878.5 501C857 501 814 501 771.2 501C728.3 501 685.7 501 642.8 501C600 501 557 501 514.2 501C471.3 501 428.7 501 385.8 501C343 501 300 501 257.2 501C214.3 501 171.7 501 128.8 501C86 501 43 501 21.5 501L0 501Z" fill="#769fcd"></path></svg>