<svg id="visual" viewBox="0 0 960 300" width="960" height="300" xmlns="http://www.w3.org/2000/svg" xmlns:xlink="http://www.w3.org/1999/xlink" version="1.1"><rect x="0" y="0" width="960" height="300" fill="#769FCD"></rect><path d="M0 56L22.8 54.7C45.7 53.3 91.3 50.7 137 52.8C182.7 55 228.3 62 274 65.3C319.7 68.7 365.3 68.3 411.2 65.2C457 62 503 56 548.8 52.2C594.7 48.3 640.3 46.7 686 48.8C731.7 51 777.3 57 823 58.8C868.7 60.7 914.3 58.3 937.2 57.2L960 56L960 0L937.2 0C914.3 0 868.7 0 823 0C777.3 0 731.7 0 686 0C640.3 0 594.7 0 548.8 0C503 0 457 0 411.2 0C365.3 0 319.7 0 274 0C228.3 0 182.7 0 137 0C91.3 0 45.7 0 22.8 0L0 0Z" fill="#769fcd"></path><path d="M0 40L22.8 42.3C45.7 44.7 91.3 49.3 137 49.5C182.7 49.7 228.3 45.3 274 46C319.7 46.7 365.3 52.3 411.2 55C457 57.7 503 57.3 548.8 57.7C594.7 58 640.3 59 686 55.7C731.7 52.3 777.3 44.7 823 43C868.7 41.3 914.3 45.7 937.2 47.8L960 50L960 0L937.2 0C914.3 0 868.7 0 823 0C777.3 0 731.7 0 686 0C640.3 0 594.7 0 548.8 0C503 0 457 0 411.2 0C365.3 0 319.7 0 274 0C228.3 0 182.7 0 137 0C91.3 0 45.7 0 22.8 0L0 0Z" fill="#85add5"></path><path d="M0 27L22.8 27C45.7 27 91.3 27 137 28.8C182.7 30.7 228.3 34.3 274 37C319.7 39.7 365.3 41.3 411.2 42.5C457 43.7 503 44.3 548.8 44.7C594.7 45 640.3 45 686 44C731.7 43 777.3 41 823 39.3C868.7 37.7 914.3 36.3 937.2 35.7L960 35L960 0L937.2 0C914.3 0 868.7 0 823 0C777.3 0 731.7 0 686 0C640.3 0 594.7 0 548.8 0C503 0 457 0 411.2 0C365.3 0 319.7 0 274 0C228.3 0 182.7 0 137 0C91.3 0 45.7 0 22.8 0L0 0Z" fill="#95bbdc"></path><path d="M0 26L22.8 25.7C45.7 25.3 91.3 24.7 137 23.7C182.7 22.7 228.3 21.3 274 21C319.7 20.7 365.3 21.3 411.2 23.3C457 25.3 503 28.7 548.8 29.3C594.7 30 640.3 28 686 27.2C731.7 26.3 777.3 26.7 823 26C868.7 25.3 914.3 23.7 937.2 22.8L960 22L960 0L937.2 0C914.3 0 868.7 0 823 0C777.3 0 731.7 0 686 0C640.3 0 594.7 0 548.8 0C503 0 457 0 411.2 0C365.3 0 319.7 0 274 0C228.3 0 182.7 0 137 0C91.3 0 45.7 0 22.8 0L0 0Z" fill="#a6c9e3"></path><path d="M0 14L22.8 13C45.7 12 91.3 10 137 9.8C182.7 9.7 228.3 11.3 274 13.2C319.7 15 365.3 17 411.2 17.2C457 17.3 503 15.7 548.8 15.8C594.7 16 640.3 18 686 17.3C731.7 16.7 777.3 13.3 823 12C868.7 10.7 914.3 11.3 937.2 11.7L960 12L960 0L937.2 0C914.3 0 868.7 0 823 0C777.3 0 731.7 0 686 0C640.3 0 594.7 0 548.8 0C503 0 457 0 411.2 0C365.3 0 319.7 0 274 0C228.3 0 182.7 0 137 0C91.3 0 45.7 0 22.8 0L0 0Z" fill="#b9d7ea"></path></svg>