<svg id="visual" viewBox="0 0 900 500" width="900" height="500" xmlns="http://www.w3.org/2000/svg" xmlns:xlink="http://www.w3.org/1999/xlink" version="1.1"><rect x="0" y="0" width="900" height="500" fill="#F7FBFC"></rect><path d="M0 143L21.5 152.8C43 162.7 86 182.3 128.8 191.8C171.7 201.3 214.3 200.7 257.2 201.5C300 202.3 343 204.7 385.8 196C428.7 187.3 471.3 167.7 514.2 154.7C557 141.7 600 135.3 642.8 136.7C685.7 138 728.3 147 771.2 146.3C814 145.7 857 135.3 878.5 130.2L900 125L900 0L878.5 0C857 0 814 0 771.2 0C728.3 0 685.7 0 642.8 0C600 0 557 0 514.2 0C471.3 0 428.7 0 385.8 0C343 0 300 0 257.2 0C214.3 0 171.7 0 128.8 0C86 0 43 0 21.5 0L0 0Z" fill="#d6e6f2"></path><path d="M0 133L21.5 130.3C43 127.7 86 122.3 128.8 122.8C171.7 123.3 214.3 129.7 257.2 136.5C300 143.3 343 150.7 385.8 145.5C428.7 140.3 471.3 122.7 514.2 124.5C557 126.3 600 147.7 642.8 153.7C685.7 159.7 728.3 150.3 771.2 141.3C814 132.3 857 123.7 878.5 119.3L900 115L900 0L878.5 0C857 0 814 0 771.2 0C728.3 0 685.7 0 642.8 0C600 0 557 0 514.2 0C471.3 0 428.7 0 385.8 0C343 0 300 0 257.2 0C214.3 0 171.7 0 128.8 0C86 0 43 0 21.5 0L0 0Z" fill="#bdd5e8"></path><path d="M0 121L21.5 122C43 123 86 125 128.8 116.8C171.7 108.7 214.3 90.3 257.2 91.2C300 92 343 112 385.8 113.5C428.7 115 471.3 98 514.2 90C557 82 600 83 642.8 85.7C685.7 88.3 728.3 92.7 771.2 99.7C814 106.7 857 116.3 878.5 121.2L900 126L900 0L878.5 0C857 0 814 0 771.2 0C728.3 0 685.7 0 642.8 0C600 0 557 0 514.2 0C471.3 0 428.7 0 385.8 0C343 0 300 0 257.2 0C214.3 0 171.7 0 128.8 0C86 0 43 0 21.5 0L0 0Z" fill="#a4c3df"></path><path d="M0 90L21.5 90.3C43 90.7 86 91.3 128.8 90.5C171.7 89.7 214.3 87.3 257.2 85.7C300 84 343 83 385.8 78C428.7 73 471.3 64 514.2 59.3C557 54.7 600 54.3 642.8 54.7C685.7 55 728.3 56 771.2 62C814 68 857 79 878.5 84.5L900 90L900 0L878.5 0C857 0 814 0 771.2 0C728.3 0 685.7 0 642.8 0C600 0 557 0 514.2 0C471.3 0 428.7 0 385.8 0C343 0 300 0 257.2 0C214.3 0 171.7 0 128.8 0C86 0 43 0 21.5 0L0 0Z" fill="#8cb1d6"></path><path d="M0 32L21.5 32.7C43 33.3 86 34.7 128.8 35.5C171.7 36.3 214.3 36.7 257.2 39.2C300 41.7 343 46.3 385.8 46.2C428.7 46 471.3 41 514.2 38.2C557 35.3 600 34.7 642.8 38C685.7 41.3 728.3 48.7 771.2 49C814 49.3 857 42.7 878.5 39.3L900 36L900 0L878.5 0C857 0 814 0 771.2 0C728.3 0 685.7 0 642.8 0C600 0 557 0 514.2 0C471.3 0 428.7 0 385.8 0C343 0 300 0 257.2 0C214.3 0 171.7 0 128.8 0C86 0 43 0 21.5 0L0 0Z" fill="#769fcd"></path></svg>